M48
; DRILL file {KiCad 9.0.2+dfsg-1} date 2025-10-06T22:07:24-0500
; FORMAT={-:-/ absolute / metric / decimal}
; #@! TF.CreationDate,2025-10-06T22:07:24-05:00
; #@! TF.GenerationSoftware,Kicad,Pcbnew,9.0.2+dfsg-1
; #@! TF.FileFunction,Plated,1,2,PTH
FMAT,2
METRIC
; #@! TA.AperFunction,Plated,PTH,ViaDrill
T1C0.300
; #@! TA.AperFunction,Plated,PTH,ComponentDrill
T2C0.800
; #@! TA.AperFunction,Plated,PTH,ComponentDrill
T3C1.000
; #@! TA.AperFunction,Plated,PTH,ComponentDrill
T4C2.925
%
G90
G05
T1
X23.6Y-86.5
X25.0Y-83.5
X26.96Y-151.46
X53.0Y-85.5
X53.5Y-87.5
X54.0Y-22.5
X54.0Y-27.5
X65.5Y-87.0
X71.5Y-87.0
X92.0Y-87.0
X112.0Y-86.5
T2
X57.0Y-19.0
X57.0Y-48.0
X80.0Y-20.0
X82.5Y-20.0
X85.0Y-20.0
X87.5Y-20.0
X90.0Y-20.0
X92.5Y-20.0
X95.0Y-20.0
X97.5Y-20.0
X120.0Y-19.0
X120.0Y-48.0
T3
X28.5Y-51.0
X28.5Y-53.54
X28.5Y-56.08
X28.5Y-58.62
X28.5Y-61.16
X28.5Y-63.7
X28.5Y-66.24
X28.5Y-68.78
X28.5Y-71.32
X28.5Y-73.86
X28.5Y-76.4
X28.5Y-78.94
X28.5Y-81.48
X28.5Y-84.02
X28.5Y-86.56
X28.5Y-89.1
X28.5Y-91.64
X28.5Y-94.18
X28.5Y-96.72
X28.5Y-99.26
X46.28Y-51.0
X46.28Y-53.54
X46.28Y-56.08
X46.28Y-58.62
X46.28Y-61.16
X46.28Y-63.7
X46.28Y-66.24
X46.28Y-68.78
X46.28Y-71.32
X46.28Y-73.86
X46.28Y-76.4
X46.28Y-78.94
X46.28Y-81.48
X46.28Y-84.02
X46.28Y-86.56
X46.28Y-89.1
X46.28Y-91.64
X46.28Y-94.18
X46.28Y-96.72
X46.28Y-99.26
T4
X36.19Y-113.46
X36.19Y-132.5
X36.19Y-151.46
X42.54Y-110.92
X42.54Y-129.96
X42.54Y-148.92
X55.65Y-132.5
X55.69Y-56.46
X55.69Y-75.46
X55.69Y-94.46
X55.69Y-113.46
X62.0Y-129.96
X62.04Y-53.92
X62.04Y-72.92
X62.04Y-91.92
X62.04Y-110.92
X65.24Y-151.435
X71.59Y-148.895
X74.69Y-56.46
X74.69Y-75.46
X74.69Y-94.46
X74.69Y-113.46
X74.69Y-132.46
X81.04Y-53.92
X81.04Y-72.92
X81.04Y-91.92
X81.04Y-110.92
X81.04Y-129.92
X93.69Y-56.46
X93.69Y-75.46
X93.69Y-94.46
X93.69Y-113.46
X93.69Y-132.46
X93.69Y-151.46
X100.04Y-53.92
X100.04Y-72.92
X100.04Y-91.92
X100.04Y-110.92
X100.04Y-129.92
X100.04Y-148.92
X112.65Y-104.04
X112.65Y-142.04
X112.69Y-56.46
X112.69Y-75.46
X119.0Y-101.5
X119.0Y-139.5
X119.04Y-53.92
X119.04Y-72.92
M30
