%TF.GenerationSoftware,KiCad,Pcbnew,9.0.2+dfsg-1*%
%TF.CreationDate,2025-10-06T22:07:28-05:00*%
%TF.ProjectId,numpad,6e756d70-6164-42e6-9b69-6361645f7063,rev?*%
%TF.SameCoordinates,Original*%
%TF.FileFunction,Soldermask,Top*%
%TF.FilePolarity,Negative*%
%FSLAX46Y46*%
G04 Gerber Fmt 4.6, Leading zero omitted, Abs format (unit mm)*
G04 Created by KiCad (PCBNEW 9.0.2+dfsg-1) date 2025-10-06 22:07:28*
%MOMM*%
%LPD*%
G01*
G04 APERTURE LIST*
G04 Aperture macros list*
%AMRoundRect*
0 Rectangle with rounded corners*
0 $1 Rounding radius*
0 $2 $3 $4 $5 $6 $7 $8 $9 X,Y pos of 4 corners*
0 Add a 4 corners polygon primitive as box body*
4,1,4,$2,$3,$4,$5,$6,$7,$8,$9,$2,$3,0*
0 Add four circle primitives for the rounded corners*
1,1,$1+$1,$2,$3*
1,1,$1+$1,$4,$5*
1,1,$1+$1,$6,$7*
1,1,$1+$1,$8,$9*
0 Add four rect primitives between the rounded corners*
20,1,$1+$1,$2,$3,$4,$5,0*
20,1,$1+$1,$4,$5,$6,$7,0*
20,1,$1+$1,$6,$7,$8,$9,0*
20,1,$1+$1,$8,$9,$2,$3,0*%
%AMFreePoly0*
4,1,37,0.603843,0.796157,0.639018,0.796157,0.711114,0.766294,0.766294,0.711114,0.796157,0.639018,0.796157,0.603843,0.800000,0.600000,0.800000,-0.600000,0.796157,-0.603843,0.796157,-0.639018,0.766294,-0.711114,0.711114,-0.766294,0.639018,-0.796157,0.603843,-0.796157,0.600000,-0.800000,0.000000,-0.800000,0.000000,-0.796148,-0.078414,-0.796148,-0.232228,-0.765552,-0.377117,-0.705537,
-0.507515,-0.618408,-0.618408,-0.507515,-0.705537,-0.377117,-0.765552,-0.232228,-0.796148,-0.078414,-0.796148,0.078414,-0.765552,0.232228,-0.705537,0.377117,-0.618408,0.507515,-0.507515,0.618408,-0.377117,0.705537,-0.232228,0.765552,-0.078414,0.796148,0.000000,0.796148,0.000000,0.800000,0.600000,0.800000,0.603843,0.796157,0.603843,0.796157,$1*%
%AMFreePoly1*
4,1,37,0.000000,0.796148,0.078414,0.796148,0.232228,0.765552,0.377117,0.705537,0.507515,0.618408,0.618408,0.507515,0.705537,0.377117,0.765552,0.232228,0.796148,0.078414,0.796148,-0.078414,0.765552,-0.232228,0.705537,-0.377117,0.618408,-0.507515,0.507515,-0.618408,0.377117,-0.705537,0.232228,-0.765552,0.078414,-0.796148,0.000000,-0.796148,0.000000,-0.800000,-0.600000,-0.800000,
-0.603843,-0.796157,-0.639018,-0.796157,-0.711114,-0.766294,-0.766294,-0.711114,-0.796157,-0.639018,-0.796157,-0.603843,-0.800000,-0.600000,-0.800000,0.600000,-0.796157,0.603843,-0.796157,0.639018,-0.766294,0.711114,-0.711114,0.766294,-0.639018,0.796157,-0.603843,0.796157,-0.600000,0.800000,0.000000,0.800000,0.000000,0.796148,0.000000,0.796148,$1*%
G04 Aperture macros list end*
%ADD10C,1.700000*%
%ADD11RoundRect,0.150000X-0.350000X-0.350000X0.350000X-0.350000X0.350000X0.350000X-0.350000X0.350000X0*%
%ADD12RoundRect,0.250000X-0.750000X-0.750000X0.750000X-0.750000X0.750000X0.750000X-0.750000X0.750000X0*%
%ADD13C,2.000000*%
%ADD14C,4.000000*%
%ADD15C,3.500000*%
%ADD16RoundRect,0.187500X-0.437500X-0.447500X0.437500X-0.447500X0.437500X0.447500X-0.437500X0.447500X0*%
%ADD17RoundRect,0.225000X0.375000X-0.225000X0.375000X0.225000X-0.375000X0.225000X-0.375000X-0.225000X0*%
%ADD18RoundRect,0.225000X-0.375000X0.225000X-0.375000X-0.225000X0.375000X-0.225000X0.375000X0.225000X0*%
%ADD19RoundRect,0.225000X-0.225000X-0.375000X0.225000X-0.375000X0.225000X0.375000X-0.225000X0.375000X0*%
%ADD20C,3.050000*%
%ADD21RoundRect,0.200000X-0.600000X-0.600000X0.600000X-0.600000X0.600000X0.600000X-0.600000X0.600000X0*%
%ADD22C,1.600000*%
%ADD23FreePoly0,0.000000*%
%ADD24FreePoly1,0.000000*%
G04 APERTURE END LIST*
D10*
%TO.C,*%
X128000000Y-163500000D03*
%TD*%
%TO.C,*%
X23000000Y-163500000D03*
%TD*%
%TO.C,*%
X23000000Y-16500000D03*
%TD*%
%TO.C,*%
X128000000Y-16500000D03*
%TD*%
D11*
%TO.C,LCD-1*%
X57000000Y-19000000D03*
D12*
X80000000Y-20000000D03*
D11*
X57000000Y-48000000D03*
D13*
X82500000Y-20000000D03*
X85000000Y-20000000D03*
D11*
X120000000Y-48000000D03*
D13*
X87500000Y-20000000D03*
D11*
X120000000Y-19000000D03*
D13*
X90000000Y-20000000D03*
X92500000Y-20000000D03*
X95000000Y-20000000D03*
X97500000Y-20000000D03*
%TD*%
D10*
%TO.C,key-numlock*%
X54420000Y-78000000D03*
D14*
X59500000Y-78000000D03*
D10*
X64580000Y-78000000D03*
D15*
X62040000Y-72920000D03*
D16*
X53665000Y-75420000D03*
D15*
X55690000Y-75460000D03*
%TD*%
D10*
%TO.C,key-7*%
X54420000Y-97000000D03*
D14*
X59500000Y-97000000D03*
D10*
X64580000Y-97000000D03*
D15*
X62040000Y-91920000D03*
D16*
X53665000Y-94420000D03*
D15*
X55690000Y-94460000D03*
%TD*%
D10*
%TO.C,key-1*%
X54380000Y-135040000D03*
D14*
X59460000Y-135040000D03*
D10*
X64540000Y-135040000D03*
D15*
X62000000Y-129960000D03*
D16*
X53625000Y-132460000D03*
D15*
X55650000Y-132500000D03*
%TD*%
D10*
%TO.C,key-3*%
X92420000Y-135000000D03*
D14*
X97500000Y-135000000D03*
D10*
X102580000Y-135000000D03*
D15*
X100040000Y-129920000D03*
D16*
X91665000Y-132420000D03*
D15*
X93690000Y-132460000D03*
%TD*%
D10*
%TO.C,key-m7*%
X34920000Y-116000000D03*
D14*
X40000000Y-116000000D03*
D10*
X45080000Y-116000000D03*
D15*
X42540000Y-110920000D03*
D16*
X34165000Y-113420000D03*
D15*
X36190000Y-113460000D03*
%TD*%
D10*
%TO.C,key-5*%
X73420000Y-116000000D03*
D14*
X78500000Y-116000000D03*
D10*
X83580000Y-116000000D03*
D15*
X81040000Y-110920000D03*
D16*
X72665000Y-113420000D03*
D15*
X74690000Y-113460000D03*
%TD*%
D10*
%TO.C,key-8*%
X73420000Y-97000000D03*
D14*
X78500000Y-97000000D03*
D10*
X83580000Y-97000000D03*
D15*
X81040000Y-91920000D03*
D16*
X72665000Y-94420000D03*
D15*
X74690000Y-94460000D03*
%TD*%
D10*
%TO.C,key-minus*%
X111420000Y-78000000D03*
D14*
X116500000Y-78000000D03*
D10*
X121580000Y-78000000D03*
D15*
X119040000Y-72920000D03*
D16*
X110665000Y-75420000D03*
D15*
X112690000Y-75460000D03*
%TD*%
D10*
%TO.C,key-m2*%
X73420000Y-59000000D03*
D14*
X78500000Y-59000000D03*
D10*
X83580000Y-59000000D03*
D15*
X81040000Y-53920000D03*
D16*
X72665000Y-56420000D03*
D15*
X74690000Y-56460000D03*
%TD*%
D10*
%TO.C,key-m4*%
X111420000Y-59000000D03*
D14*
X116500000Y-59000000D03*
D10*
X121580000Y-59000000D03*
D15*
X119040000Y-53920000D03*
D16*
X110665000Y-56420000D03*
D15*
X112690000Y-56460000D03*
%TD*%
D10*
%TO.C,key-6*%
X92420000Y-116000000D03*
D14*
X97500000Y-116000000D03*
D10*
X102580000Y-116000000D03*
D15*
X100040000Y-110920000D03*
D16*
X91665000Y-113420000D03*
D15*
X93690000Y-113460000D03*
%TD*%
D10*
%TO.C,key-multiply*%
X92420000Y-78000000D03*
D14*
X97500000Y-78000000D03*
D10*
X102580000Y-78000000D03*
D15*
X100040000Y-72920000D03*
D16*
X91665000Y-75420000D03*
D15*
X93690000Y-75460000D03*
%TD*%
D10*
%TO.C,key-4*%
X54420000Y-116000000D03*
D14*
X59500000Y-116000000D03*
D10*
X64580000Y-116000000D03*
D15*
X62040000Y-110920000D03*
D16*
X53665000Y-113420000D03*
D15*
X55690000Y-113460000D03*
%TD*%
D10*
%TO.C,key-9*%
X92420000Y-97000000D03*
D14*
X97500000Y-97000000D03*
D10*
X102580000Y-97000000D03*
D15*
X100040000Y-91920000D03*
D16*
X91665000Y-94420000D03*
D15*
X93690000Y-94460000D03*
%TD*%
D10*
%TO.C,key-m1*%
X54420000Y-59000000D03*
D14*
X59500000Y-59000000D03*
D10*
X64580000Y-59000000D03*
D15*
X62040000Y-53920000D03*
D16*
X53665000Y-56420000D03*
D15*
X55690000Y-56460000D03*
%TD*%
D10*
%TO.C,key-m3*%
X92420000Y-59000000D03*
D14*
X97500000Y-59000000D03*
D10*
X102580000Y-59000000D03*
D15*
X100040000Y-53920000D03*
D16*
X91665000Y-56420000D03*
D15*
X93690000Y-56460000D03*
%TD*%
D10*
%TO.C,key-divide*%
X73420000Y-78000000D03*
D14*
X78500000Y-78000000D03*
D10*
X83580000Y-78000000D03*
D15*
X81040000Y-72920000D03*
D16*
X72665000Y-75420000D03*
D15*
X74690000Y-75460000D03*
%TD*%
D10*
%TO.C,key-del*%
X92420000Y-154000000D03*
D14*
X97500000Y-154000000D03*
D10*
X102580000Y-154000000D03*
D15*
X100040000Y-148920000D03*
D16*
X91665000Y-151420000D03*
D15*
X93690000Y-151460000D03*
%TD*%
D10*
%TO.C,key-2*%
X73420000Y-135000000D03*
D14*
X78500000Y-135000000D03*
D10*
X83580000Y-135000000D03*
D15*
X81040000Y-129920000D03*
D16*
X72665000Y-132420000D03*
D15*
X74690000Y-132460000D03*
%TD*%
D10*
%TO.C,key-m5*%
X34920000Y-154000000D03*
D14*
X40000000Y-154000000D03*
D10*
X45080000Y-154000000D03*
D15*
X42540000Y-148920000D03*
D16*
X34165000Y-151420000D03*
D15*
X36190000Y-151460000D03*
%TD*%
D10*
%TO.C,key-m6*%
X34920000Y-135040000D03*
D14*
X40000000Y-135040000D03*
D10*
X45080000Y-135040000D03*
D15*
X42540000Y-129960000D03*
D16*
X34165000Y-132460000D03*
D15*
X36190000Y-132500000D03*
%TD*%
D17*
%TO.C,D-m1*%
X51500000Y-61800000D03*
X51500000Y-58500000D03*
%TD*%
%TO.C,D-m2*%
X70000000Y-59650000D03*
X70000000Y-56350000D03*
%TD*%
D18*
%TO.C,D-m7*%
X32000000Y-110850000D03*
X32000000Y-114150000D03*
%TD*%
D17*
%TO.C,D-enter*%
X108500000Y-145650000D03*
X108500000Y-142350000D03*
%TD*%
D18*
%TO.C,D-m6*%
X31500000Y-129000000D03*
X31500000Y-132300000D03*
%TD*%
D17*
%TO.C,D-divide*%
X70000000Y-78650000D03*
X70000000Y-75350000D03*
%TD*%
D19*
%TO.C,D-m5*%
X28850000Y-151500000D03*
X32150000Y-151500000D03*
%TD*%
D17*
%TO.C,D-m4*%
X108000000Y-61150000D03*
X108000000Y-57850000D03*
%TD*%
%TO.C,D-7*%
X51500000Y-104650000D03*
X51500000Y-101350000D03*
%TD*%
%TO.C,D-m3*%
X89000000Y-61400000D03*
X89000000Y-58100000D03*
%TD*%
%TO.C,D-multiply*%
X89000000Y-79150000D03*
X89000000Y-75850000D03*
%TD*%
D18*
%TO.C,D-3*%
X89500000Y-129000000D03*
X89500000Y-132300000D03*
%TD*%
D17*
%TO.C,D-6*%
X89000000Y-116650000D03*
X89000000Y-113350000D03*
%TD*%
D20*
%TO.C,key-enter*%
X109460000Y-132680000D03*
X109460000Y-156480000D03*
D10*
X111380000Y-144580000D03*
D14*
X116460000Y-144580000D03*
D10*
X121540000Y-144580000D03*
D14*
X124700000Y-132680000D03*
X124700000Y-156480000D03*
D15*
X119000000Y-139500000D03*
X112650000Y-142040000D03*
%TD*%
D17*
%TO.C,D-plus*%
X108000000Y-107150000D03*
X108000000Y-103850000D03*
%TD*%
%TO.C,D-8*%
X70000000Y-97650000D03*
X70000000Y-94350000D03*
%TD*%
D18*
%TO.C,D-1*%
X51000000Y-129500000D03*
X51000000Y-132800000D03*
%TD*%
D20*
%TO.C,key-plus*%
X109460000Y-94680000D03*
X109460000Y-118480000D03*
D10*
X111380000Y-106580000D03*
D14*
X116460000Y-106580000D03*
D10*
X121540000Y-106580000D03*
D14*
X124700000Y-94680000D03*
X124700000Y-118480000D03*
D15*
X119000000Y-101500000D03*
X112650000Y-104040000D03*
%TD*%
D17*
%TO.C,D-9*%
X89500000Y-97650000D03*
X89500000Y-94350000D03*
%TD*%
D21*
%TO.C,RPI-PICO*%
X28500000Y-51000000D03*
D22*
X28500000Y-53540000D03*
D23*
X28500000Y-56080000D03*
D22*
X28500000Y-58620000D03*
X28500000Y-61160000D03*
X28500000Y-63700000D03*
X28500000Y-66240000D03*
D23*
X28500000Y-68780000D03*
D22*
X28500000Y-71320000D03*
X28500000Y-73860000D03*
X28500000Y-76400000D03*
X28500000Y-78940000D03*
D23*
X28500000Y-81480000D03*
D22*
X28500000Y-84020000D03*
X28500000Y-86560000D03*
X28500000Y-89100000D03*
X28500000Y-91640000D03*
D23*
X28500000Y-94180000D03*
D22*
X28500000Y-96720000D03*
X28500000Y-99260000D03*
X46280000Y-99260000D03*
X46280000Y-96720000D03*
D24*
X46280000Y-94180000D03*
D22*
X46280000Y-91640000D03*
X46280000Y-89100000D03*
X46280000Y-86560000D03*
X46280000Y-84020000D03*
D24*
X46280000Y-81480000D03*
D22*
X46280000Y-78940000D03*
X46280000Y-76400000D03*
X46280000Y-73860000D03*
X46280000Y-71320000D03*
D24*
X46280000Y-68780000D03*
D22*
X46280000Y-66240000D03*
X46280000Y-63700000D03*
X46280000Y-61160000D03*
X46280000Y-58620000D03*
D24*
X46280000Y-56080000D03*
D22*
X46280000Y-53540000D03*
X46280000Y-51000000D03*
%TD*%
D20*
%TO.C,key-zero*%
X57150000Y-146975000D03*
D14*
X57150000Y-162215000D03*
D10*
X63970000Y-153975000D03*
D14*
X69050000Y-153975000D03*
D10*
X74130000Y-153975000D03*
D20*
X80950000Y-146975000D03*
D14*
X80950000Y-162215000D03*
D15*
X71590000Y-148895000D03*
X65240000Y-151435000D03*
%TD*%
D18*
%TO.C,D-del*%
X89000000Y-148850000D03*
X89000000Y-152150000D03*
%TD*%
D17*
%TO.C,D-numlock*%
X51500000Y-77300000D03*
X51500000Y-74000000D03*
%TD*%
D18*
%TO.C,D-2*%
X70000000Y-129000000D03*
X70000000Y-132300000D03*
%TD*%
D17*
%TO.C,D-4*%
X51000000Y-116650000D03*
X51000000Y-113350000D03*
%TD*%
%TO.C,D-5*%
X70000000Y-117000000D03*
X70000000Y-113700000D03*
%TD*%
%TO.C,D-minus*%
X108000000Y-78650000D03*
X108000000Y-75350000D03*
%TD*%
%TO.C,D-zero*%
X60000000Y-155300000D03*
X60000000Y-152000000D03*
%TD*%
M02*
