M48
; DRILL file {KiCad 9.0.2+dfsg-1} date 2025-10-06T22:07:24-0500
; FORMAT={-:-/ absolute / metric / decimal}
; #@! TF.CreationDate,2025-10-06T22:07:24-05:00
; #@! TF.GenerationSoftware,Kicad,Pcbnew,9.0.2+dfsg-1
; #@! TF.FileFunction,NonPlated,1,2,NPTH
FMAT,2
METRIC
; #@! TA.AperFunction,NonPlated,NPTH,ComponentDrill
T1C1.700
; #@! TA.AperFunction,NonPlated,NPTH,ComponentDrill
T2C3.050
; #@! TA.AperFunction,NonPlated,NPTH,ComponentDrill
T3C4.000
%
G90
G05
T1
X23.0Y-16.5
X23.0Y-163.5
X34.92Y-116.0
X34.92Y-135.04
X34.92Y-154.0
X45.08Y-116.0
X45.08Y-135.04
X45.08Y-154.0
X54.38Y-135.04
X54.42Y-59.0
X54.42Y-78.0
X54.42Y-97.0
X54.42Y-116.0
X63.97Y-153.975
X64.54Y-135.04
X64.58Y-59.0
X64.58Y-78.0
X64.58Y-97.0
X64.58Y-116.0
X73.42Y-59.0
X73.42Y-78.0
X73.42Y-97.0
X73.42Y-116.0
X73.42Y-135.0
X74.13Y-153.975
X83.58Y-59.0
X83.58Y-78.0
X83.58Y-97.0
X83.58Y-116.0
X83.58Y-135.0
X92.42Y-59.0
X92.42Y-78.0
X92.42Y-97.0
X92.42Y-116.0
X92.42Y-135.0
X92.42Y-154.0
X102.58Y-59.0
X102.58Y-78.0
X102.58Y-97.0
X102.58Y-116.0
X102.58Y-135.0
X102.58Y-154.0
X111.38Y-106.58
X111.38Y-144.58
X111.42Y-59.0
X111.42Y-78.0
X121.54Y-106.58
X121.54Y-144.58
X121.58Y-59.0
X121.58Y-78.0
X128.0Y-16.5
X128.0Y-163.5
T2
X57.15Y-146.975
X80.95Y-146.975
X109.46Y-94.68
X109.46Y-118.48
X109.46Y-132.68
X109.46Y-156.48
T3
X40.0Y-116.0
X40.0Y-135.04
X40.0Y-154.0
X57.15Y-162.215
X59.46Y-135.04
X59.5Y-59.0
X59.5Y-78.0
X59.5Y-97.0
X59.5Y-116.0
X69.05Y-153.975
X78.5Y-59.0
X78.5Y-78.0
X78.5Y-97.0
X78.5Y-116.0
X78.5Y-135.0
X80.95Y-162.215
X97.5Y-59.0
X97.5Y-78.0
X97.5Y-97.0
X97.5Y-116.0
X97.5Y-135.0
X97.5Y-154.0
X116.46Y-106.58
X116.46Y-144.58
X116.5Y-59.0
X116.5Y-78.0
X124.7Y-94.68
X124.7Y-118.48
X124.7Y-132.68
X124.7Y-156.48
M30
